<svg xmlns="http://www.w3.org/2000/svg" xmlns:xlink="http://www.w3.org/1999/xlink" width="1080" zoomAndPan="magnify" viewBox="0 0 810 809.999993" height="1080" preserveAspectRatio="xMidYMid meet" version="1.0"><defs><g/><clipPath id="d1fc48d753"><rect x="0" width="279" y="0" height="173"/></clipPath><clipPath id="a83b36639d"><rect x="0" width="402" y="0" height="204"/></clipPath></defs><g transform="matrix(1, 0, 0, 1, 47, 318)"><g clip-path="url(#d1fc48d753)"><g fill="#000000" fill-opacity="1"><g transform="translate(0.263913, 123.684594)"><g><path d="M 40.078125 -77.625 C 44.160156 -77.625 48.007812 -76.660156 51.625 -74.734375 C 53.664062 -73.828125 55.082031 -73.375 55.875 -73.375 C 58.03125 -73.375 59.785156 -74.789062 61.140625 -77.625 L 64.203125 -77.625 L 59.609375 -51.796875 L 56.5625 -51.796875 C 56.5625 -59.160156 55.113281 -64.707031 52.21875 -68.4375 C 49.332031 -72.175781 45.796875 -74.046875 41.609375 -74.046875 C 38.554688 -74.046875 36.035156 -73.082031 34.046875 -71.15625 C 32.066406 -69.238281 31.078125 -67.085938 31.078125 -64.703125 C 31.078125 -61.992188 31.867188 -59.25 33.453125 -56.46875 C 35.046875 -53.695312 37.539062 -50.046875 40.9375 -45.515625 C 44.78125 -40.535156 47.722656 -36.175781 49.765625 -32.4375 C 51.804688 -28.695312 52.828125 -24.789062 52.828125 -20.71875 C 52.828125 -16.875 51.773438 -13.222656 49.671875 -9.765625 C 47.578125 -6.304688 44.601562 -3.472656 40.75 -1.265625 C 36.90625 0.929688 32.4375 2.03125 27.34375 2.03125 C 24.394531 2.03125 20.828125 1.296875 16.640625 -0.171875 C 13.703125 -1.078125 11.78125 -1.53125 10.875 -1.53125 C 8.71875 -1.53125 6.789062 -0.34375 5.09375 2.03125 L 1.53125 2.03125 L 6.453125 -25.140625 L 9.84375 -25.140625 C 10.300781 -18.347656 11.691406 -12.710938 14.015625 -8.234375 C 16.335938 -3.765625 20.664062 -1.53125 27 -1.53125 C 31.414062 -1.53125 34.867188 -3.03125 37.359375 -6.03125 C 39.859375 -9.03125 41.109375 -12.171875 41.109375 -15.453125 C 41.109375 -17.828125 40.425781 -20.289062 39.0625 -22.84375 C 37.707031 -25.394531 36.179688 -27.914062 34.484375 -30.40625 C 32.785156 -32.894531 31.648438 -34.535156 31.078125 -35.328125 L 28.53125 -39.0625 C 25.59375 -43.132812 23.414062 -46.644531 22 -49.59375 C 20.582031 -52.539062 19.875 -55.710938 19.875 -59.109375 C 19.875 -63.179688 20.945312 -66.601562 23.09375 -69.375 C 25.25 -72.15625 27.910156 -74.222656 31.078125 -75.578125 C 34.253906 -76.941406 37.253906 -77.625 40.078125 -77.625 Z M 40.078125 -77.625 "/></g></g></g><g fill="#000000" fill-opacity="1"><g transform="translate(48.840911, 123.684594)"><g><path d="M 56.890625 -77.625 C 60.972656 -77.625 64.539062 -76.429688 67.59375 -74.046875 C 70.65625 -71.671875 72.1875 -68.390625 72.1875 -64.203125 C 72.1875 -61.023438 71.28125 -58.359375 69.46875 -56.203125 C 67.65625 -54.054688 65.617188 -52.984375 63.359375 -52.984375 C 61.765625 -52.984375 60.398438 -53.550781 59.265625 -54.6875 C 58.140625 -55.820312 57.578125 -57.238281 57.578125 -58.9375 C 57.578125 -60.40625 57.859375 -61.535156 58.421875 -62.328125 C 58.992188 -63.117188 59.84375 -64.023438 60.96875 -65.046875 C 61.988281 -65.953125 62.695312 -66.660156 63.09375 -67.171875 C 63.488281 -67.679688 63.6875 -68.390625 63.6875 -69.296875 C 63.6875 -71.109375 62.921875 -72.4375 61.390625 -73.28125 C 59.867188 -74.132812 58.257812 -74.5625 56.5625 -74.5625 C 50.5625 -74.5625 44.925781 -71.703125 39.65625 -65.984375 C 34.394531 -60.265625 30.175781 -53.410156 27 -45.421875 C 23.832031 -37.441406 22.25 -30.566406 22.25 -24.796875 C 22.25 -18.796875 23.71875 -13.953125 26.65625 -10.265625 C 29.601562 -6.585938 33.457031 -4.75 38.21875 -4.75 C 42.851562 -4.75 47.238281 -6.164062 51.375 -9 C 55.507812 -11.832031 59.050781 -15.171875 62 -19.015625 L 64.546875 -17.328125 C 53.785156 -4.421875 42.460938 2.03125 30.578125 2.03125 C 23.554688 2.03125 18.0625 -0.425781 14.09375 -5.34375 C 10.132812 -10.269531 8.15625 -16.128906 8.15625 -22.921875 C 8.15625 -31.191406 10.503906 -39.597656 15.203125 -48.140625 C 19.898438 -56.691406 26.039062 -63.742188 33.625 -69.296875 C 41.21875 -74.847656 48.972656 -77.625 56.890625 -77.625 Z M 56.890625 -77.625 "/></g></g></g><g fill="#000000" fill-opacity="1"><g transform="translate(106.420035, 123.684594)"><g><path d="M 52.828125 -77.625 C 55.878906 -77.625 58.648438 -76.570312 61.140625 -74.46875 C 63.628906 -72.375 65.160156 -69.460938 65.734375 -65.734375 L 66.0625 -65.734375 L 68.78125 -75.75 L 82.203125 -77.625 L 64.703125 -16.3125 C 64.597656 -16.082031 64.316406 -15.226562 63.859375 -13.75 C 63.410156 -12.28125 63.1875 -10.8125 63.1875 -9.34375 C 63.1875 -8.4375 63.410156 -7.726562 63.859375 -7.21875 C 64.316406 -6.707031 64.828125 -6.453125 65.390625 -6.453125 C 66.859375 -6.453125 68.722656 -7.46875 70.984375 -9.5 C 73.253906 -11.539062 75.410156 -14.375 77.453125 -18 L 80 -16.3125 C 76.9375 -10.644531 73.054688 -6.171875 68.359375 -2.890625 C 63.660156 0.390625 59.5 2.03125 55.875 2.03125 C 53.84375 2.03125 52.316406 1.296875 51.296875 -0.171875 C 50.273438 -1.640625 49.765625 -3.453125 49.765625 -5.609375 C 49.765625 -7.078125 50.070312 -9.476562 50.6875 -12.8125 C 51.3125 -16.15625 52.304688 -19.523438 53.671875 -22.921875 L 53.328125 -23.265625 C 40.648438 -6.398438 29.160156 2.03125 18.859375 2.03125 C 14.328125 2.03125 10.726562 0.078125 8.0625 -3.828125 C 5.40625 -7.734375 4.078125 -12.234375 4.078125 -17.328125 C 4.078125 -26.160156 6.648438 -35.300781 11.796875 -44.75 C 16.953125 -54.207031 23.347656 -62.050781 30.984375 -68.28125 C 38.628906 -74.507812 45.910156 -77.625 52.828125 -77.625 Z M 17.65625 -20.546875 C 17.65625 -16.128906 18.675781 -12.898438 20.71875 -10.859375 C 22.757812 -8.828125 25.140625 -7.8125 27.859375 -7.8125 C 31.367188 -7.8125 35.160156 -9.394531 39.234375 -12.5625 C 43.304688 -15.738281 47.066406 -19.785156 50.515625 -24.703125 C 53.972656 -29.628906 56.550781 -34.644531 58.25 -39.75 C 59.945312 -44.726562 61.191406 -48.828125 61.984375 -52.046875 C 62.785156 -55.273438 63.1875 -58.421875 63.1875 -61.484375 C 63.1875 -65.898438 62.164062 -69.15625 60.125 -71.25 C 58.082031 -73.34375 55.703125 -74.390625 52.984375 -74.390625 C 47.671875 -74.390625 42.265625 -71.132812 36.765625 -64.625 C 31.273438 -58.113281 26.71875 -50.5 23.09375 -41.78125 C 19.46875 -33.0625 17.65625 -25.984375 17.65625 -20.546875 Z M 17.65625 -20.546875 "/></g></g></g><g fill="#000000" fill-opacity="1"><g transform="translate(174.529917, 123.684594)"><g><path d="M 23.609375 -19.015625 C 22.816406 -16.304688 22.222656 -14.128906 21.828125 -12.484375 C 21.429688 -10.835938 21.234375 -9.453125 21.234375 -8.328125 C 21.234375 -7.535156 21.429688 -6.9375 21.828125 -6.53125 C 22.222656 -6.132812 22.585938 -5.9375 22.921875 -5.9375 C 24.285156 -5.9375 26.609375 -7.578125 29.890625 -10.859375 C 33.171875 -14.148438 35.207031 -16.472656 36 -17.828125 L 38.71875 -16.3125 C 35.101562 -11.320312 31.140625 -7.015625 26.828125 -3.390625 C 22.523438 0.222656 18.507812 2.03125 14.78125 2.03125 C 10.25 2.03125 7.984375 -0.625 7.984375 -5.9375 C 7.984375 -8.09375 8.4375 -10.753906 9.34375 -13.921875 C 10.25 -17.097656 10.867188 -19.195312 11.203125 -20.21875 L 35.328125 -104.109375 C 36.003906 -106.710938 36.34375 -108.753906 36.34375 -110.234375 C 36.34375 -111.703125 35.832031 -112.890625 34.8125 -113.796875 C 33.800781 -114.703125 32.5 -115.15625 30.90625 -115.15625 C 28.757812 -115.15625 26.835938 -114.984375 25.140625 -114.640625 L 25.140625 -117.875 L 50.109375 -121.78125 L 52.984375 -121.78125 L 25.8125 -26.671875 C 24.6875 -22.585938 23.953125 -20.035156 23.609375 -19.015625 Z M 23.609375 -19.015625 "/></g></g></g><g fill="#000000" fill-opacity="1"><g transform="translate(203.743886, 123.684594)"><g><path d="M 55.03125 -77.625 C 59.78125 -77.625 63.769531 -76.429688 67 -74.046875 C 70.226562 -71.671875 71.84375 -68.613281 71.84375 -64.875 C 71.84375 -61.25 70.144531 -57.113281 66.75 -52.46875 C 63.351562 -47.832031 57.832031 -43.726562 50.1875 -40.15625 C 42.539062 -36.59375 32.832031 -34.644531 21.0625 -34.3125 C 20.382812 -32.039062 20.046875 -29.265625 20.046875 -25.984375 C 20.046875 -19.078125 21.910156 -14.066406 25.640625 -10.953125 C 29.378906 -7.835938 33.515625 -6.28125 38.046875 -6.28125 C 45.628906 -6.28125 53.328125 -10.070312 61.140625 -17.65625 L 63.359375 -15.625 C 51.234375 -3.851562 39.507812 2.03125 28.1875 2.03125 C 23.550781 2.03125 19.503906 0.875 16.046875 -1.4375 C 12.597656 -3.757812 9.992188 -6.789062 8.234375 -10.53125 C 6.484375 -14.269531 5.609375 -18.117188 5.609375 -22.078125 C 5.609375 -30.003906 7.898438 -38.328125 12.484375 -47.046875 C 17.066406 -55.765625 23.179688 -63.039062 30.828125 -68.875 C 38.472656 -74.707031 46.539062 -77.625 55.03125 -77.625 Z M 22.078125 -37.53125 C 29.773438 -38.101562 36.003906 -39.40625 40.765625 -41.4375 C 45.398438 -43.476562 49.160156 -46.113281 52.046875 -49.34375 C 54.941406 -52.570312 57.007812 -55.738281 58.25 -58.84375 C 59.5 -61.957031 60.125 -64.535156 60.125 -66.578125 C 60.125 -68.503906 59.414062 -70.285156 58 -71.921875 C 56.582031 -73.566406 54.570312 -74.390625 51.96875 -74.390625 C 47.4375 -74.390625 43.046875 -72.296875 38.796875 -68.109375 C 34.554688 -63.921875 30.9375 -58.9375 27.9375 -53.15625 C 24.9375 -47.382812 22.984375 -42.175781 22.078125 -37.53125 Z M 22.078125 -37.53125 "/></g></g></g></g></g><g transform="matrix(1, 0, 0, 1, 326, 291)"><g clip-path="url(#a83b36639d)"><g fill="#005e3e" fill-opacity="1"><g transform="translate(0.495641, 152.53289)"><g><path d="M 41.578125 -14.71875 L 64.09375 -79.53125 L 81.546875 -79.53125 L 51.234375 0 L 31.609375 0 L 1.4375 -79.53125 L 19.046875 -79.53125 Z M 41.578125 -14.71875 "/></g></g></g><g fill="#005e3e" fill-opacity="1"><g transform="translate(75.261723, 152.53289)"><g><path d="M 19.203125 -90.078125 C 16.210938 -90.078125 13.707031 -91.085938 11.6875 -93.109375 C 9.664062 -95.128906 8.65625 -97.628906 8.65625 -100.609375 C 8.65625 -103.585938 9.664062 -106.085938 11.6875 -108.109375 C 13.707031 -110.128906 16.210938 -111.140625 19.203125 -111.140625 C 22.085938 -111.140625 24.539062 -110.128906 26.5625 -108.109375 C 28.582031 -106.085938 29.59375 -103.585938 29.59375 -100.609375 C 29.59375 -97.628906 28.582031 -95.128906 26.5625 -93.109375 C 24.539062 -91.085938 22.085938 -90.078125 19.203125 -90.078125 Z M 27.28125 -79.53125 L 27.28125 0 L 10.828125 0 L 10.828125 -79.53125 Z M 27.28125 -79.53125 "/></g></g></g><g fill="#005e3e" fill-opacity="1"><g transform="translate(104.994411, 152.53289)"><g><path d="M 27.28125 -67.984375 C 29.6875 -72.023438 32.882812 -75.175781 36.875 -77.4375 C 40.875 -79.695312 45.613281 -80.828125 51.09375 -80.828125 L 51.09375 -63.796875 L 46.90625 -63.796875 C 40.457031 -63.796875 35.570312 -62.160156 32.25 -58.890625 C 28.9375 -55.617188 27.28125 -49.941406 27.28125 -41.859375 L 27.28125 0 L 10.828125 0 L 10.828125 -79.53125 L 27.28125 -79.53125 Z M 27.28125 -67.984375 "/></g></g></g><g fill="#005e3e" fill-opacity="1"><g transform="translate(152.047638, 152.53289)"><g><path d="M 30.03125 -66.109375 L 30.03125 -22.078125 C 30.03125 -19.097656 30.722656 -16.957031 32.109375 -15.65625 C 33.503906 -14.363281 35.890625 -13.71875 39.265625 -13.71875 L 49.359375 -13.71875 L 49.359375 0 L 36.375 0 C 28.96875 0 23.289062 -1.726562 19.34375 -5.1875 C 15.394531 -8.65625 13.421875 -14.285156 13.421875 -22.078125 L 13.421875 -66.109375 L 4.046875 -66.109375 L 4.046875 -79.53125 L 13.421875 -79.53125 L 13.421875 -99.3125 L 30.03125 -99.3125 L 30.03125 -79.53125 L 49.359375 -79.53125 L 49.359375 -66.109375 Z M 30.03125 -66.109375 "/></g></g></g><g fill="#005e3e" fill-opacity="1"><g transform="translate(197.368812, 152.53289)"><g><path d="M 82.859375 -79.53125 L 82.859375 0 L 66.390625 0 L 66.390625 -9.375 C 63.796875 -6.101562 60.40625 -3.53125 56.21875 -1.65625 C 52.03125 0.21875 47.582031 1.15625 42.875 1.15625 C 36.613281 1.15625 31.003906 -0.140625 26.046875 -2.734375 C 21.097656 -5.335938 17.203125 -9.1875 14.359375 -14.28125 C 11.523438 -19.382812 10.109375 -25.546875 10.109375 -32.765625 L 10.109375 -79.53125 L 26.421875 -79.53125 L 26.421875 -35.21875 C 26.421875 -28.09375 28.195312 -22.628906 31.75 -18.828125 C 35.3125 -15.035156 40.171875 -13.140625 46.328125 -13.140625 C 52.492188 -13.140625 57.378906 -15.035156 60.984375 -18.828125 C 64.585938 -22.628906 66.390625 -28.09375 66.390625 -35.21875 L 66.390625 -79.53125 Z M 82.859375 -79.53125 "/></g></g></g><g fill="#005e3e" fill-opacity="1"><g transform="translate(282.671547, 152.53289)"><g><path d="M 5.34375 -40.125 C 5.34375 -48.113281 7 -55.1875 10.3125 -61.34375 C 13.632812 -67.5 18.160156 -72.285156 23.890625 -75.703125 C 29.617188 -79.117188 35.945312 -80.828125 42.875 -80.828125 C 49.125 -80.828125 54.582031 -79.597656 59.25 -77.140625 C 63.914062 -74.691406 67.644531 -71.640625 70.4375 -67.984375 L 70.4375 -79.53125 L 87.046875 -79.53125 L 87.046875 0 L 70.4375 0 L 70.4375 -11.84375 C 67.644531 -8.082031 63.84375 -4.953125 59.03125 -2.453125 C 54.21875 0.046875 48.734375 1.296875 42.578125 1.296875 C 35.742188 1.296875 29.488281 -0.457031 23.8125 -3.96875 C 18.132812 -7.476562 13.632812 -12.382812 10.3125 -18.6875 C 7 -24.988281 5.34375 -32.132812 5.34375 -40.125 Z M 70.4375 -39.84375 C 70.4375 -45.320312 69.304688 -50.082031 67.046875 -54.125 C 64.785156 -58.164062 61.828125 -61.242188 58.171875 -63.359375 C 54.515625 -65.484375 50.566406 -66.546875 46.328125 -66.546875 C 42.097656 -66.546875 38.15625 -65.507812 34.5 -63.4375 C 30.84375 -61.363281 27.882812 -58.332031 25.625 -54.34375 C 23.363281 -50.351562 22.234375 -45.613281 22.234375 -40.125 C 22.234375 -34.644531 23.363281 -29.832031 25.625 -25.6875 C 27.882812 -21.550781 30.863281 -18.398438 34.5625 -16.234375 C 38.269531 -14.066406 42.191406 -12.984375 46.328125 -12.984375 C 50.566406 -12.984375 54.515625 -14.039062 58.171875 -16.15625 C 61.828125 -18.28125 64.785156 -21.382812 67.046875 -25.46875 C 69.304688 -29.5625 70.4375 -34.351562 70.4375 -39.84375 Z M 70.4375 -39.84375 "/></g></g></g><g fill="#005e3e" fill-opacity="1"><g transform="translate(372.160112, 152.53289)"><g><path d="M 27.28125 -106.8125 L 27.28125 0 L 10.828125 0 L 10.828125 -106.8125 Z M 27.28125 -106.8125 "/></g></g></g></g></g><g fill="#005e3e" fill-opacity="1"><g transform="translate(728.291391, 442.264342)"><g><path d="M 2.96875 0.171875 C 2.476562 0.171875 2.066406 0.00390625 1.734375 -0.328125 C 1.398438 -0.671875 1.234375 -1.082031 1.234375 -1.5625 C 1.234375 -2.050781 1.398438 -2.460938 1.734375 -2.796875 C 2.066406 -3.128906 2.476562 -3.296875 2.96875 -3.296875 C 3.4375 -3.296875 3.832031 -3.128906 4.15625 -2.796875 C 4.476562 -2.460938 4.640625 -2.050781 4.640625 -1.5625 C 4.640625 -1.082031 4.476562 -0.671875 4.15625 -0.328125 C 3.832031 0.00390625 3.4375 0.171875 2.96875 0.171875 Z M 2.96875 0.171875 "/></g></g></g><g fill="#005e3e" fill-opacity="1"><g transform="translate(732.54659, 442.264342)"><g><path d="M 1.203125 -7.703125 C 1.203125 -9.285156 1.519531 -10.671875 2.15625 -11.859375 C 2.789062 -13.046875 3.671875 -13.960938 4.796875 -14.609375 C 5.929688 -15.265625 7.226562 -15.59375 8.6875 -15.59375 C 10.570312 -15.59375 12.125 -15.132812 13.34375 -14.21875 C 14.5625 -13.3125 15.367188 -12.046875 15.765625 -10.421875 L 13.015625 -10.421875 C 12.753906 -11.347656 12.242188 -12.082031 11.484375 -12.625 C 10.734375 -13.164062 9.800781 -13.4375 8.6875 -13.4375 C 7.226562 -13.4375 6.050781 -12.9375 5.15625 -11.9375 C 4.257812 -10.9375 3.8125 -9.523438 3.8125 -7.703125 C 3.8125 -5.847656 4.257812 -4.414062 5.15625 -3.40625 C 6.050781 -2.40625 7.226562 -1.90625 8.6875 -1.90625 C 9.800781 -1.90625 10.726562 -2.164062 11.46875 -2.6875 C 12.21875 -3.207031 12.734375 -3.953125 13.015625 -4.921875 L 15.765625 -4.921875 C 15.347656 -3.359375 14.523438 -2.101562 13.296875 -1.15625 C 12.066406 -0.21875 10.53125 0.25 8.6875 0.25 C 7.226562 0.25 5.929688 -0.0703125 4.796875 -0.71875 C 3.671875 -1.375 2.789062 -2.300781 2.15625 -3.5 C 1.519531 -4.695312 1.203125 -6.097656 1.203125 -7.703125 Z M 1.203125 -7.703125 "/></g></g></g><g fill="#005e3e" fill-opacity="1"><g transform="translate(747.916279, 442.264342)"><g><path d="M 8.84375 0.25 C 7.40625 0.25 6.101562 -0.0703125 4.9375 -0.71875 C 3.769531 -1.375 2.851562 -2.300781 2.1875 -3.5 C 1.53125 -4.707031 1.203125 -6.109375 1.203125 -7.703125 C 1.203125 -9.265625 1.539062 -10.644531 2.21875 -11.84375 C 2.90625 -13.050781 3.835938 -13.976562 5.015625 -14.625 C 6.191406 -15.269531 7.503906 -15.59375 8.953125 -15.59375 C 10.410156 -15.59375 11.726562 -15.269531 12.90625 -14.625 C 14.082031 -13.976562 15.007812 -13.054688 15.6875 -11.859375 C 16.375 -10.671875 16.71875 -9.285156 16.71875 -7.703125 C 16.71875 -6.109375 16.363281 -4.707031 15.65625 -3.5 C 14.957031 -2.300781 14.007812 -1.375 12.8125 -0.71875 C 11.625 -0.0703125 10.300781 0.25 8.84375 0.25 Z M 8.84375 -1.984375 C 9.757812 -1.984375 10.617188 -2.195312 11.421875 -2.625 C 12.222656 -3.0625 12.867188 -3.707031 13.359375 -4.5625 C 13.859375 -5.425781 14.109375 -6.472656 14.109375 -7.703125 C 14.109375 -8.929688 13.863281 -9.972656 13.375 -10.828125 C 12.894531 -11.691406 12.257812 -12.332031 11.46875 -12.75 C 10.6875 -13.175781 9.84375 -13.390625 8.9375 -13.390625 C 8 -13.390625 7.140625 -13.175781 6.359375 -12.75 C 5.585938 -12.332031 4.96875 -11.691406 4.5 -10.828125 C 4.039062 -9.972656 3.8125 -8.929688 3.8125 -7.703125 C 3.8125 -6.453125 4.039062 -5.394531 4.5 -4.53125 C 4.957031 -3.675781 5.566406 -3.035156 6.328125 -2.609375 C 7.085938 -2.191406 7.925781 -1.984375 8.84375 -1.984375 Z M 8.84375 -1.984375 "/></g></g></g></svg>